<svg xmlns="http://www.w3.org/2000/svg" viewBox="0 0 16 16" fill="none">
<path d="M12.0107 0.5C12.0613 0.500439 12.1118 0.511332 12.1582 0.53125C12.1812 0.54116 12.2031 0.553247 12.2236 0.567383L12.2812 0.616211L12.2871 0.62207L15.3965 3.72754C15.4636 3.79866 15.5008 3.89265 15.5 3.99023C15.4991 4.08939 15.4591 4.18457 15.3887 4.25488C15.3183 4.32512 15.2229 4.36534 15.123 4.36621C15.0233 4.36705 14.9271 4.32875 14.8555 4.25977L14.502 3.91895L14.1553 4.26562L12.9102 5.50781L12.5557 5.8623L12.9092 6.21582L14.4648 7.76953L14.4707 7.77637C14.507 7.81136 14.5358 7.85322 14.5557 7.89941C14.5755 7.9455 14.5865 7.99481 14.5869 8.04492C14.5874 8.09507 14.5776 8.14495 14.5586 8.19141C14.5395 8.23793 14.5112 8.28079 14.4756 8.31641C14.44 8.35192 14.3973 8.38035 14.3506 8.39941C14.3039 8.41842 14.2536 8.42817 14.2031 8.42773C14.1527 8.42726 14.1029 8.41632 14.0566 8.39648C14.0102 8.37657 13.9677 8.34775 13.9326 8.31152L13.9268 8.30566L13.3057 7.68359L12.9521 7.33105L12.5986 7.68359L7.62012 12.6562C7.2188 13.0569 6.6742 13.2822 6.10645 13.2822C5.53868 13.2822 4.99412 13.0569 4.59277 12.6562L4.23926 12.3037L3.88672 12.6562L1.14453 15.3936C1.07291 15.4626 0.976777 15.5008 0.876953 15.5C0.777092 15.4991 0.681756 15.459 0.611328 15.3887C0.540915 15.3184 0.500863 15.2232 0.5 15.124C0.499411 15.0498 0.520779 14.9776 0.560547 14.916L0.606445 14.8584L3.34766 12.1211L3.70215 11.7666L3.34766 11.4131C3.14889 11.2146 2.99133 10.979 2.88379 10.7197C2.77627 10.4605 2.7207 10.1829 2.7207 9.90234C2.72071 9.62181 2.77627 9.34418 2.88379 9.08496C2.99133 8.82572 3.14889 8.59007 3.34766 8.3916L8.32617 3.41895L8.68066 3.06543L8.32617 2.71191L7.69824 2.08398L7.64941 2.02637C7.63524 2.00584 7.62318 1.98394 7.61328 1.96094C7.59341 1.91475 7.58247 1.86468 7.58203 1.81445C7.58165 1.76437 7.59134 1.71437 7.61035 1.66797C7.62941 1.62155 7.65777 1.57949 7.69336 1.54395C7.72902 1.50833 7.77159 1.48005 7.81836 1.46094C7.86509 1.44187 7.9153 1.43218 7.96582 1.43262C8.01629 1.43308 8.06596 1.444 8.1123 1.46387C8.15873 1.48378 8.20129 1.5126 8.23633 1.54883L8.24219 1.55469L9.79883 3.1084L10.1514 3.46094L10.5049 3.10742L11.749 1.86523L12.1104 1.50488L11.7432 1.15137C11.7069 1.11638 11.6781 1.0745 11.6582 1.02832C11.6383 0.982131 11.6274 0.932061 11.627 0.881836C11.6266 0.831756 11.6363 0.781741 11.6553 0.735352C11.6743 0.688964 11.7027 0.646867 11.7383 0.611328C11.7739 0.575737 11.8166 0.547429 11.8633 0.52832C11.91 0.509228 11.9602 0.49958 12.0107 0.5ZM8.86426 3.9541L7.62012 5.19824L7.26562 5.55176L7.62012 5.90625L8.24219 6.52637C8.27748 6.56158 8.30514 6.60348 8.32422 6.64941C8.34327 6.69529 8.35347 6.74432 8.35352 6.79395C8.35353 6.84364 8.34326 6.8935 8.32422 6.93945C8.30518 6.98521 8.27733 7.02738 8.24219 7.0625C8.207 7.09758 8.16516 7.12547 8.11914 7.14453C8.07305 7.16361 8.02355 7.17377 7.97363 7.17383C7.92359 7.17385 7.87335 7.16362 7.82715 7.14453C7.80415 7.135 7.7823 7.1231 7.76172 7.10938L7.7041 7.0625L7.08203 6.44141L6.72852 6.08789L6.375 6.44141L5.75293 7.0625L5.39844 7.41602L5.75293 7.76953L6.375 8.3916L6.38184 8.39746C6.41804 8.43242 6.44696 8.47439 6.4668 8.52051C6.48664 8.56667 6.49663 8.6168 6.49707 8.66699C6.49745 8.71707 6.48776 8.76708 6.46875 8.81348C6.44969 8.85984 6.4213 8.90199 6.38574 8.9375C6.35021 8.97294 6.30827 9.00143 6.26172 9.02051C6.21508 9.03957 6.16469 9.04921 6.11426 9.04883C6.06369 9.04839 6.01323 9.0375 5.9668 9.01758C5.92045 8.99767 5.87873 8.96879 5.84375 8.93262L5.83691 8.92676L5.21484 8.30566L4.86133 7.95215L4.50879 8.30566L3.88574 8.92676C3.75763 9.05467 3.65634 9.20682 3.58691 9.37402C3.51741 9.54147 3.48145 9.72104 3.48145 9.90234C3.48145 10.0837 3.5174 10.2632 3.58691 10.4307C3.65634 10.5979 3.75763 10.75 3.88574 10.8779L5.13086 12.1211C5.38972 12.3795 5.74074 12.5244 6.10645 12.5244C6.47215 12.5244 6.82319 12.3795 7.08203 12.1211L12.0605 7.14844L12.415 6.79492L12.0605 6.44141L9.57129 3.9541L9.21777 3.60156L8.86426 3.9541ZM12.2881 2.40039L11.043 3.64453L10.6885 3.99805L11.043 4.35156L11.665 4.97266L12.0186 5.32617L12.3711 4.97363L13.6172 3.73047L13.9717 3.37695L12.6416 2.04688L12.2881 2.40039Z" fill="black" stroke="#29B48B"/>
</svg>