<svg xmlns="http://www.w3.org/2000/svg" viewBox="0 0 18 18" fill="none">
  <mask id="path-1-inside-1_2313_8004" fill="white">
    <path
      d="M6.75 0C6.45163 0 6.16548 0.118526 5.9545 0.329505C5.74353 0.540483 5.625 0.826631 5.625 1.125V2.25C5.32663 2.25 5.04048 2.36853 4.8295 2.5795C4.61853 2.79048 4.5 3.07663 4.5 3.375V7.875H1.125C0.826631 7.875 0.540483 7.99353 0.329505 8.2045C0.118526 8.41548 0 8.70163 0 9L0 16.875C0 17.1734 0.118526 17.4595 0.329505 17.6705C0.540483 17.8815 0.826631 18 1.125 18H7.875V15.1875C7.875 15.0383 7.93426 14.8952 8.03975 14.7898C8.14524 14.6843 8.28832 14.625 8.4375 14.625H9.5625C9.71168 14.625 9.85476 14.6843 9.96025 14.7898C10.0657 14.8952 10.125 15.0383 10.125 15.1875V18H16.875C17.1734 18 17.4595 17.8815 17.6705 17.6705C17.8815 17.4595 18 17.1734 18 16.875V9C18 8.70163 17.8815 8.41548 17.6705 8.2045C17.4595 7.99353 17.1734 7.875 16.875 7.875H13.5V3.375C13.5 3.07663 13.3815 2.79048 13.1705 2.5795C12.9595 2.36853 12.6734 2.25 12.375 2.25V1.125C12.375 0.826631 12.2565 0.540483 12.0455 0.329505C11.8345 0.118526 11.5484 0 11.25 0L6.75 0ZM9.5625 5.66325V6.90075L10.6346 6.282L11.1971 7.25738L10.125 7.875L11.1971 8.49375L10.6346 9.468L9.5625 8.84925V10.0868H8.4375V8.84925L7.36538 9.468L6.80288 8.49375L7.875 7.875L6.80288 7.25625L7.36538 6.282L8.4375 6.90075V5.66325H9.5625ZM2.53125 10.125H3.09375C3.16834 10.125 3.23988 10.1546 3.29262 10.2074C3.34537 10.2601 3.375 10.3317 3.375 10.4062V10.9688C3.375 11.0433 3.34537 11.1149 3.29262 11.1676C3.23988 11.2204 3.16834 11.25 3.09375 11.25H2.53125C2.45666 11.25 2.38512 11.2204 2.33238 11.1676C2.27963 11.1149 2.25 11.0433 2.25 10.9688V10.4062C2.25 10.3317 2.27963 10.2601 2.33238 10.2074C2.38512 10.1546 2.45666 10.125 2.53125 10.125ZM2.53125 12.375H3.09375C3.16834 12.375 3.23988 12.4046 3.29262 12.4574C3.34537 12.5101 3.375 12.5817 3.375 12.6562V13.2188C3.375 13.2933 3.34537 13.3649 3.29262 13.4176C3.23988 13.4704 3.16834 13.5 3.09375 13.5H2.53125C2.45666 13.5 2.38512 13.4704 2.33238 13.4176C2.27963 13.3649 2.25 13.2933 2.25 13.2188V12.6562C2.25 12.5817 2.27963 12.5101 2.33238 12.4574C2.38512 12.4046 2.45666 12.375 2.53125 12.375ZM2.25 14.9062C2.25 14.8317 2.27963 14.7601 2.33238 14.7074C2.38512 14.6546 2.45666 14.625 2.53125 14.625H3.09375C3.16834 14.625 3.23988 14.6546 3.29262 14.7074C3.34537 14.7601 3.375 14.8317 3.375 14.9062V15.4688C3.375 15.5433 3.34537 15.6149 3.29262 15.6676C3.23988 15.7204 3.16834 15.75 3.09375 15.75H2.53125C2.45666 15.75 2.38512 15.7204 2.33238 15.6676C2.27963 15.6149 2.25 15.5433 2.25 15.4688V14.9062ZM14.9062 10.125H15.4688C15.5433 10.125 15.6149 10.1546 15.6676 10.2074C15.7204 10.2601 15.75 10.3317 15.75 10.4062V10.9688C15.75 11.0433 15.7204 11.1149 15.6676 11.1676C15.6149 11.2204 15.5433 11.25 15.4688 11.25H14.9062C14.8317 11.25 14.7601 11.2204 14.7074 11.1676C14.6546 11.1149 14.625 11.0433 14.625 10.9688V10.4062C14.625 10.3317 14.6546 10.2601 14.7074 10.2074C14.7601 10.1546 14.8317 10.125 14.9062 10.125ZM14.625 12.6562C14.625 12.5817 14.6546 12.5101 14.7074 12.4574C14.7601 12.4046 14.8317 12.375 14.9062 12.375H15.4688C15.5433 12.375 15.6149 12.4046 15.6676 12.4574C15.7204 12.5101 15.75 12.5817 15.75 12.6562V13.2188C15.75 13.2933 15.7204 13.3649 15.6676 13.4176C15.6149 13.4704 15.5433 13.5 15.4688 13.5H14.9062C14.8317 13.5 14.7601 13.4704 14.7074 13.4176C14.6546 13.3649 14.625 13.2933 14.625 13.2188V12.6562ZM14.9062 14.625H15.4688C15.5433 14.625 15.6149 14.6546 15.6676 14.7074C15.7204 14.7601 15.75 14.8317 15.75 14.9062V15.4688C15.75 15.5433 15.7204 15.6149 15.6676 15.6676C15.6149 15.7204 15.5433 15.75 15.4688 15.75H14.9062C14.8317 15.75 14.7601 15.7204 14.7074 15.6676C14.6546 15.6149 14.625 15.5433 14.625 15.4688V14.9062C14.625 14.8317 14.6546 14.7601 14.7074 14.7074C14.7601 14.6546 14.8317 14.625 14.9062 14.625Z"
    />
  </mask>
  <path
    d="M6.75 0C6.45163 0 6.16548 0.118526 5.9545 0.329505C5.74353 0.540483 5.625 0.826631 5.625 1.125V2.25C5.32663 2.25 5.04048 2.36853 4.8295 2.5795C4.61853 2.79048 4.5 3.07663 4.5 3.375V7.875H1.125C0.826631 7.875 0.540483 7.99353 0.329505 8.2045C0.118526 8.41548 0 8.70163 0 9L0 16.875C0 17.1734 0.118526 17.4595 0.329505 17.6705C0.540483 17.8815 0.826631 18 1.125 18H7.875V15.1875C7.875 15.0383 7.93426 14.8952 8.03975 14.7898C8.14524 14.6843 8.28832 14.625 8.4375 14.625H9.5625C9.71168 14.625 9.85476 14.6843 9.96025 14.7898C10.0657 14.8952 10.125 15.0383 10.125 15.1875V18H16.875C17.1734 18 17.4595 17.8815 17.6705 17.6705C17.8815 17.4595 18 17.1734 18 16.875V9C18 8.70163 17.8815 8.41548 17.6705 8.2045C17.4595 7.99353 17.1734 7.875 16.875 7.875H13.5V3.375C13.5 3.07663 13.3815 2.79048 13.1705 2.5795C12.9595 2.36853 12.6734 2.25 12.375 2.25V1.125C12.375 0.826631 12.2565 0.540483 12.0455 0.329505C11.8345 0.118526 11.5484 0 11.25 0L6.75 0ZM9.5625 5.66325V6.90075L10.6346 6.282L11.1971 7.25738L10.125 7.875L11.1971 8.49375L10.6346 9.468L9.5625 8.84925V10.0868H8.4375V8.84925L7.36538 9.468L6.80288 8.49375L7.875 7.875L6.80288 7.25625L7.36538 6.282L8.4375 6.90075V5.66325H9.5625ZM2.53125 10.125H3.09375C3.16834 10.125 3.23988 10.1546 3.29262 10.2074C3.34537 10.2601 3.375 10.3317 3.375 10.4062V10.9688C3.375 11.0433 3.34537 11.1149 3.29262 11.1676C3.23988 11.2204 3.16834 11.25 3.09375 11.25H2.53125C2.45666 11.25 2.38512 11.2204 2.33238 11.1676C2.27963 11.1149 2.25 11.0433 2.25 10.9688V10.4062C2.25 10.3317 2.27963 10.2601 2.33238 10.2074C2.38512 10.1546 2.45666 10.125 2.53125 10.125ZM2.53125 12.375H3.09375C3.16834 12.375 3.23988 12.4046 3.29262 12.4574C3.34537 12.5101 3.375 12.5817 3.375 12.6562V13.2188C3.375 13.2933 3.34537 13.3649 3.29262 13.4176C3.23988 13.4704 3.16834 13.5 3.09375 13.5H2.53125C2.45666 13.5 2.38512 13.4704 2.33238 13.4176C2.27963 13.3649 2.25 13.2933 2.25 13.2188V12.6562C2.25 12.5817 2.27963 12.5101 2.33238 12.4574C2.38512 12.4046 2.45666 12.375 2.53125 12.375ZM2.25 14.9062C2.25 14.8317 2.27963 14.7601 2.33238 14.7074C2.38512 14.6546 2.45666 14.625 2.53125 14.625H3.09375C3.16834 14.625 3.23988 14.6546 3.29262 14.7074C3.34537 14.7601 3.375 14.8317 3.375 14.9062V15.4688C3.375 15.5433 3.34537 15.6149 3.29262 15.6676C3.23988 15.7204 3.16834 15.75 3.09375 15.75H2.53125C2.45666 15.75 2.38512 15.7204 2.33238 15.6676C2.27963 15.6149 2.25 15.5433 2.25 15.4688V14.9062ZM14.9062 10.125H15.4688C15.5433 10.125 15.6149 10.1546 15.6676 10.2074C15.7204 10.2601 15.75 10.3317 15.75 10.4062V10.9688C15.75 11.0433 15.7204 11.1149 15.6676 11.1676C15.6149 11.2204 15.5433 11.25 15.4688 11.25H14.9062C14.8317 11.25 14.7601 11.2204 14.7074 11.1676C14.6546 11.1149 14.625 11.0433 14.625 10.9688V10.4062C14.625 10.3317 14.6546 10.2601 14.7074 10.2074C14.7601 10.1546 14.8317 10.125 14.9062 10.125ZM14.625 12.6562C14.625 12.5817 14.6546 12.5101 14.7074 12.4574C14.7601 12.4046 14.8317 12.375 14.9062 12.375H15.4688C15.5433 12.375 15.6149 12.4046 15.6676 12.4574C15.7204 12.5101 15.75 12.5817 15.75 12.6562V13.2188C15.75 13.2933 15.7204 13.3649 15.6676 13.4176C15.6149 13.4704 15.5433 13.5 15.4688 13.5H14.9062C14.8317 13.5 14.7601 13.4704 14.7074 13.4176C14.6546 13.3649 14.625 13.2933 14.625 13.2188V12.6562ZM14.9062 14.625H15.4688C15.5433 14.625 15.6149 14.6546 15.6676 14.7074C15.7204 14.7601 15.75 14.8317 15.75 14.9062V15.4688C15.75 15.5433 15.7204 15.6149 15.6676 15.6676C15.6149 15.7204 15.5433 15.75 15.4688 15.75H14.9062C14.8317 15.75 14.7601 15.7204 14.7074 15.6676C14.6546 15.6149 14.625 15.5433 14.625 15.4688V14.9062C14.625 14.8317 14.6546 14.7601 14.7074 14.7074C14.7601 14.6546 14.8317 14.625 14.9062 14.625Z"
    fill="#29B48B"
    stroke="#29B48B"
    stroke-width="2"
    mask="url(#path-1-inside-1_2313_8004)"
  />
</svg>
