<svg
  xmlns="http://www.w3.org/2000/svg"
  viewBox="0 0 32 32"
  fill="none"
  stroke="currentColor"
  stroke-width="2"
>
  <path
    d="M16 2C8.82 2 3 7.82 3 15c0 2.65.78 5.12 2.12 7.2L3 30l7.99-2.08A12.94 12.94 0 0 0 16 28c7.18 0 13-5.82 13-13S23.18 2 16 2z"
  />
  <path
    d="M22.52 18.36c-.3-.15-1.77-.87-2.05-.97-.27-.1-.47-.15-.66.15-.2.3-.76.97-.94 1.17-.17.2-.35.22-.65.07-.3-.15-1.27-.47-2.42-1.5-.9-.8-1.5-1.8-1.68-2.1-.17-.3-.02-.46.13-.6.14-.14.3-.35.45-.52.15-.17.2-.3.3-.5.1-.2.05-.37-.02-.52-.07-.15-.66-1.6-.9-2.2-.24-.58-.48-.5-.66-.51h-.56c-.2 0-.52.07-.8.37-.27.3-1.05 1.02-1.05 2.5s1.07 2.92 1.22 3.12c.15.2 2.1 3.2 5.1 4.5.71.3 1.27.48 1.7.61.71.23 1.35.2 1.86.12.57-.08 1.77-.72 2.02-1.42.25-.7.25-1.3.17-1.42-.07-.12-.27-.2-.57-.35z"
  />
</svg>
