<svg xmlns="http://www.w3.org/2000/svg" viewBox="0 0 14 14" fill="none">
  <path
    d="M0.583008 10.7823L3.02701 12.8193C3.38642 13.1185 3.83933 13.2823 4.30701 13.2823H10.75C11.21 13.2823 11.583 12.9093 11.583 12.4493C11.583 11.5293 10.837 10.7823 9.91601 10.7823H5.43701M8.31501 1.03225C8.1824 1.03225 8.05522 1.08493 7.96145 1.1787C7.86769 1.27246 7.81501 1.39964 7.81501 1.53225V2.93925H6.40901C6.2764 2.93925 6.14922 2.99193 6.05545 3.0857C5.96169 3.17946 5.90901 3.30664 5.90901 3.43925V5.06425C5.90901 5.19686 5.96169 5.32404 6.05545 5.4178C6.14922 5.51157 6.2764 5.56425 6.40901 5.56425H7.81501V6.97025C7.81501 7.10286 7.86769 7.23003 7.96145 7.3238C8.05522 7.41757 8.1824 7.47025 8.31501 7.47025H9.94001C10.0726 7.47025 10.1998 7.41757 10.2936 7.3238C10.3873 7.23003 10.44 7.10286 10.44 6.97025V5.56425H11.846C11.9786 5.56425 12.1058 5.51157 12.1996 5.4178C12.2933 5.32404 12.346 5.19686 12.346 5.06425V3.43925C12.346 3.30664 12.2933 3.17946 12.1996 3.0857C12.1058 2.99193 11.9786 2.93925 11.846 2.93925H10.44V1.53125C10.44 1.39864 10.3873 1.27146 10.2936 1.1777C10.1998 1.08393 10.0726 1.03125 9.94001 1.03125L8.31501 1.03225Z"
    stroke="#29B48B"
    stroke-linecap="round"
    stroke-linejoin="round"
  />
  <path
    d="M3.58301 9.78125L4.33301 10.5312C4.4315 10.6297 4.54843 10.7079 4.67711 10.7612C4.8058 10.8145 4.94372 10.8419 5.08301 10.8419C5.2223 10.8419 5.36022 10.8145 5.4889 10.7612C5.61759 10.7079 5.73452 10.6297 5.83301 10.5312C5.9315 10.4328 6.00963 10.3158 6.06293 10.1871C6.11623 10.0585 6.14367 9.92054 6.14367 9.78125C6.14367 9.64196 6.11623 9.50404 6.06293 9.37535C6.00963 9.24667 5.9315 9.12974 5.83301 9.03125L4.66901 7.86725C4.29402 7.49215 3.7854 7.28136 3.25501 7.28125H0.583008"
    stroke="#29B48B"
    stroke-linecap="round"
    stroke-linejoin="round"
  />
</svg>
