    <svg
      xmlns="http://www.w3.org/2000/svg"
      fill="none"
      viewBox="0 0 24 24"
      stroke-width="1.8"
      stroke="currentColor"
    >
      <path
        stroke-linecap="round"
        stroke-linejoin="round"
        d="M2.25 6.75c0 8.284 6.716 15 15 15h2.25a1.5 1.5 0 0 0 1.5-1.5v-3.489a1.5 1.5 0 0 0-1.222-1.474l-3.57-.714a1.5 1.5 0 0 0-1.465.547l-.978 1.304a12.042 12.042 0 0 1-5.197-5.197l1.304-.978a1.5 1.5 0 0 0 .547-1.465l-.714-3.57A1.5 1.5 0 0 0 7.239 3H3.75a1.5 1.5 0 0 0-1.5 1.5v2.25Z"
      />
    </svg>
